<?xml version="1.0" encoding="utf-8"?>
<!-- Generator: Adobe Illustrator 15.0.2, SVG Export Plug-In . SVG Version: 6.00 Build 0)  -->
<!DOCTYPE svg PUBLIC "-//W3C//DTD SVG 1.1//EN" "http://www.w3.org/Graphics/SVG/1.1/DTD/svg11.dtd">
<svg version="1.1" id="Layer_1" xmlns="http://www.w3.org/2000/svg" xmlns:xlink="http://www.w3.org/1999/xlink" x="0px" y="0px"
	 width="88px" height="88px" viewBox="0 0 88 88" enable-background="new 0 0 88 88" xml:space="preserve">
<path fill="none" stroke="#F0CF1B" stroke-width="4" stroke-miterlimit="10" d="M86,70c0,8.836-7.164,16-16,16H18
	C9.164,86,2,78.836,2,70V18C2,9.164,9.164,2,18,2h52c8.836,0,16,7.164,16,16V70z"/>
<path fill="#F0CF1B" d="M32.534,45.889c0,0,3.711,1.367,2.15-2.541c-1.562-3.908-6.642-14.654-6.642-14.654
	s-2.345-5.861,2.735-2.735c0.977,1.171,6.644,12.699,6.644,12.699s2.736,2.345,1.758-1.759c-0.978-4.104-4.885-15.436-4.885-15.436
	s-0.782-5.274,2.931-1.952c0.977,0.976,6.644,15.435,6.644,15.435s1.952,4.104,1.756-0.586c-0.194-4.688-1.756-13.675-1.756-13.675
	s-0.39-5.08,3.126-1.173c0.78,1.562,3.122,14.457,3.906,17.193c0.782,2.736,4.69,11.329,7.23,5.861
	c1.173-6.447,2.733-9.965,2.733-9.965s3.518-5.275,3.322,2.931s-2.735,20.904-3.908,23.446c-1.172,2.54-5.078,5.863-10.939,8.405
	c-5.862,2.538-9.379-2.542-10.748-4.105c-1.368-1.564-4.3-8.209-8.597-13.092c-4.298-4.883-8.986-10.551-8.986-10.551
	s-1.954-5.664,1.562-3.125C26.087,39.049,31.558,45.889,32.534,45.889z"/>
</svg>
