<?xml version="1.0" encoding="utf-8"?>
<!-- Generator: Adobe Illustrator 15.0.2, SVG Export Plug-In . SVG Version: 6.00 Build 0)  -->
<!DOCTYPE svg PUBLIC "-//W3C//DTD SVG 1.1//EN" "http://www.w3.org/Graphics/SVG/1.1/DTD/svg11.dtd">
<svg version="1.1" id="Layer_1" xmlns="http://www.w3.org/2000/svg" xmlns:xlink="http://www.w3.org/1999/xlink" x="0px" y="0px"
	 width="258px" height="40px" viewBox="0 0 258 40" enable-background="new 0 0 258 40" xml:space="preserve">
<g>
	<path fill="#604017" d="M44.765,16.171c0-0.521-0.274-0.762-0.759-0.762h-1.413v-2.875H45.8c1.517,0,2.206,0.657,2.206,1.94v0.657
		c0,0.554-0.034,1.005-0.034,1.005h0.069c0.829-2.043,3.242-4.019,5.966-4.019c2.965,0,4.654,1.352,5.241,3.984h0.069
		c0.966-2.114,3.379-3.984,6.207-3.984c3.932,0,5.759,2.251,5.759,6.721v7.586c0,0.52,0.276,0.762,0.759,0.762h1.415v2.875h-3.311
		c-1.551,0-2.208-0.654-2.208-2.215v-8.28c0-2.46-0.481-4.4-3.068-4.4c-2.414,0-4.277,2.113-4.897,4.502
		c-0.173,0.73-0.276,1.492-0.276,2.391v8.002h-3.345V19.566c0-2.287-0.346-4.4-3.001-4.4c-2.55,0-4.345,2.148-5,4.643
		c-0.172,0.693-0.241,1.455-0.241,2.25v8.002h-3.346L44.765,16.171L44.765,16.171z"/>
	<path fill="#604017" d="M77.25,16.171c0-0.521-0.276-0.762-0.759-0.762h-1.415v-2.875h3.277c1.552,0,2.207,0.657,2.207,2.216
		v11.674c0,0.52,0.276,0.762,0.759,0.762h1.414v2.875h-3.276c-1.551,0-2.206-0.654-2.206-2.215L77.25,16.171L77.25,16.171z
		 M77.319,5.604h3v3.5h-3V5.604z"/>
	<path fill="#604017" d="M86.56,16.171c0-0.521-0.276-0.762-0.759-0.762h-1.414v-2.875h3.207c1.483,0,2.207,0.657,2.207,1.94v0.657
		c0,0.554-0.068,1.005-0.068,1.005h0.068c0.69-1.524,2.759-4.019,6.552-4.019c4.138,0,6.001,2.251,6.001,6.721v7.586
		c0,0.52,0.274,0.762,0.759,0.762h1.412v2.875h-3.31c-1.551,0-2.207-0.654-2.207-2.215v-8.245c0-2.46-0.482-4.4-3.275-4.4
		c-2.69,0-4.827,1.767-5.518,4.295c-0.241,0.694-0.311,1.49-0.311,2.355v8.209H86.56V16.171z"/>
	<path fill="#604017" d="M108.078,16.171c0-0.521-0.275-0.762-0.758-0.762h-1.414v-2.875h3.276c1.585,0,2.241,0.657,2.241,2.148
		v8.313c0,2.425,0.481,4.364,3.24,4.364c3.587,0,5.69-3.15,5.69-6.615v-8.21h3.345v13.891c0,0.521,0.276,0.763,0.759,0.763h1.414
		v2.875h-3.208c-1.482,0-2.206-0.69-2.206-1.94v-0.655c0-0.555,0.033-1.006,0.033-1.006h-0.068c-0.724,1.73-2.965,4.018-6.415,4.018
		c-3.931,0-5.931-2.076-5.931-6.72v-7.588H108.078z"/>
	<path fill="#604017" d="M129.698,15.236h-2.275v-2.703h2.345V7.717h3.276v4.816h4.172v2.703h-4.172v8.038
		c0,3.496,2.413,3.947,3.688,3.947c0.482,0,0.793-0.07,0.793-0.07v2.98c0,0-0.447,0.068-1.172,0.068
		c-2.207,0-6.656-0.69-6.656-6.547L129.698,15.236L129.698,15.236z"/>
	<path fill="#604017" d="M148.457,12.117c4.898,0,7.52,3.673,7.52,8.21c0,0.45-0.104,1.386-0.104,1.386h-12.724
		c0.205,3.741,2.896,5.855,5.998,5.855c3.002,0,5.104-2.045,5.104-2.045l1.447,2.39c0,0-2.585,2.563-6.724,2.563
		c-5.518,0-9.276-3.982-9.276-9.18C139.699,15.72,143.492,12.117,148.457,12.117z M152.527,19.254
		c-0.104-2.911-1.932-4.47-4.104-4.47c-2.553,0-4.621,1.56-5.138,4.47H152.527z"/>
	<path fill="#B4C434" d="M160.525,14.611h-2.17v-1.975h2.17v-0.622c0-5.751,4.035-6.48,5.967-6.48c0.656,0,1.068,0.07,1.068,0.07
		v2.113c0,0-0.31-0.07-0.826-0.07c-1.311,0-3.862,0.486-3.862,4.367v0.622h4.414v1.975h-4.414v15.45h-2.347V14.611z"/>
	<path fill="#B4C434" d="M172.756,8.515c0-0.487-0.273-0.763-0.758-0.763h-1.447V5.707h2.448c1.481,0,2.103,0.625,2.103,2.114
		v19.436c0,0.521,0.276,0.763,0.76,0.763h1.447v2.043h-2.447c-1.482,0-2.104-0.623-2.104-2.112L172.756,8.515L172.756,8.515z"/>
	<path fill="#B4C434" d="M188.758,12.22c5.07,0,9.172,3.881,9.172,9.043c0,5.266-4.102,9.213-9.137,9.213
		c-5.068,0-9.174-3.947-9.174-9.213C179.619,16.101,183.725,12.22,188.758,12.22z M188.793,28.364c3.689,0,6.725-3.05,6.725-7.103
		c0-3.949-3.033-6.895-6.725-6.895c-3.723,0-6.759,2.946-6.759,6.895C182.034,25.314,185.07,28.364,188.793,28.364z"/>
	<path fill="#B4C434" d="M200.965,15.476c-0.207-0.622-0.586-0.795-1.203-0.795h-0.451v-2.045h1.209c1.652,0,2.205,0.313,2.723,1.94
		l3.554,11.051c0.274,0.832,0.517,1.872,0.517,1.872h0.07c0,0,0.273-1.04,0.551-1.872l4.239-12.921h2.347l4.24,12.921
		c0.276,0.832,0.553,1.872,0.553,1.872h0.069c0,0,0.204-1.005,0.481-1.872l3.586-11.051c0.517-1.627,1.07-1.94,2.726-1.94h1.205
		v2.045h-0.481c-0.586,0-1,0.173-1.207,0.795l-4.967,14.584h-2.584l-4.244-12.4c-0.273-0.865-0.516-1.871-0.516-1.871h-0.068
		c0,0-0.242,1.005-0.553,1.871l-4.207,12.4h-2.621L200.965,15.476z"/>
	<path fill="#B4C434" d="M237.311,12.22c4.795,0,7.277,3.708,7.277,8.037c0,0.416-0.07,1.179-0.07,1.179h-13.311
		c0.07,4.398,3.139,6.93,6.727,6.93c3.17,0,5.205-2.149,5.205-2.149l1.137,1.769c0,0-2.515,2.494-6.446,2.494
		c-5.14,0-9.069-3.74-9.069-9.109C228.759,15.649,232.656,12.22,237.311,12.22z M242.175,19.566
		c-0.14-3.604-2.346-5.371-4.899-5.371c-2.861,0-5.377,1.87-5.963,5.371H242.175z"/>
	<path fill="#B4C434" d="M249.277,15.444c0-0.487-0.278-0.763-0.76-0.763h-1.447v-2.045h2.412c1.447,0,2.104,0.589,2.104,1.975
		v1.178c0,0.727-0.069,1.316-0.069,1.316h0.069c0.826-2.632,2.759-4.643,5.481-4.643c0.483,0,0.932,0.105,0.932,0.105v2.319
		c0,0-0.414-0.068-0.861-0.068c-2.447,0-4.275,1.94-5.033,4.502c-0.346,1.109-0.482,2.288-0.482,3.397v7.342h-2.346V15.444
		L249.277,15.444z"/>
</g>
<g>
	<path fill="#B4C434" d="M23.658,26.58c1.396-0.667,1.993-2.344,1.331-3.747c-0.167-0.358-0.397-0.66-0.674-0.905
		c2.572-0.225,3.249-2.282,2.429-4.017c-0.663-1.402-2.357-2.602-4.36-0.928c0.207-0.652,0.179-1.384-0.135-2.055
		c-0.663-1.405-2.332-2.003-3.731-1.337c-1.122,0.533-1.725,1.718-1.581,2.89c-0.726-0.337-1.591-0.358-2.373,0.012
		c-1.399,0.666-1.997,2.342-1.335,3.747c0.445,0.934,1.33,1.513,2.283,1.597c-0.988,0.797-1.345,2.2-0.778,3.397
		c0.663,1.406,2.332,2.005,3.729,1.342c0.662-0.316,1.143-0.855,1.396-1.488C20.428,26.538,22.129,27.305,23.658,26.58z
		 M16.25,22.082c-0.904-1.921-0.089-4.21,1.821-5.12c1.913-0.912,4.193-0.091,5.097,1.831c0.904,1.917,0.092,4.21-1.821,5.119
		C19.436,24.818,17.155,24.001,16.25,22.082z"/>
	<path fill="#B4C434" d="M19.549,11.343c0,0-7.414-3.11,0.172-11.343C20.984,2.433,25.505,7.404,19.549,11.343z"/>
	<path fill="#B4C434" d="M20.092,28.654c0,0-7.414,3.111,0.172,11.346C21.527,37.566,26.049,32.596,20.092,28.654z"/>
	<path fill="#B4C434" d="M25.687,13.771c0,0-3.053-7.466,8.105-7.898C32.973,8.49,32.671,15.217,25.687,13.771z"/>
	<path fill="#B4C434" d="M13.884,26.396c0,0-7.432-3.065-7.862,8.146C8.627,33.719,15.324,33.415,13.884,26.396z"/>
	<path fill="#B4C434" d="M28.525,19.761c0,0,3.096-7.447,11.289,0.173C37.393,21.204,32.446,25.747,28.525,19.761z"/>
	<path fill="#B4C434" d="M11.291,20.306c0,0-3.096-7.447-11.291,0.174C2.421,21.748,7.37,26.291,11.291,20.306z"/>
	<path fill="#B4C434" d="M26.108,25.928c0,0,7.431-3.066,7.86,8.143C31.363,33.247,24.669,32.945,26.108,25.928z"/>
	<path fill="#B4C434" d="M13.539,14.07c0,0,3.052-7.464-8.106-7.897C6.251,8.791,6.553,15.518,13.539,14.07z"/>
	<g>
		<line fill="none" stroke="#604017" stroke-width="0.9866" x1="20.042" y1="20.239" x2="27.61" y2="17.614"/>
		<line fill="none" stroke="#604017" stroke-width="0.9866" x1="19.553" y1="20.172" x2="19.526" y2="6.408"/>
		<path fill="#604017" d="M20.892,20.445c0-0.697-0.562-1.262-1.257-1.262c-0.694,0-1.255,0.565-1.255,1.262
			c0,0.702,0.561,1.267,1.255,1.267C20.33,21.712,20.892,21.146,20.892,20.445z"/>
	</g>
</g>
</svg>
