<?xml version="1.0" encoding="utf-8"?>
<!-- Generator: Adobe Illustrator 15.0.2, SVG Export Plug-In . SVG Version: 6.00 Build 0)  -->
<!DOCTYPE svg PUBLIC "-//W3C//DTD SVG 1.1//EN" "http://www.w3.org/Graphics/SVG/1.1/DTD/svg11.dtd">
<svg version="1.1" id="Layer_1" xmlns="http://www.w3.org/2000/svg" xmlns:xlink="http://www.w3.org/1999/xlink" x="0px" y="0px"
	 width="45px" height="41px" viewBox="0 0 45 41" enable-background="new 0 0 45 41" xml:space="preserve">
<g>
	<path fill="#FFFFFF" d="M0,21.017c0,0,2.404,0.136,11.217-5.23c8.811-5.363,13.751-8.045,13.751-8.045s2.404-2.013,3.874,0.268
		c1.467,2.28,10.146,16.227,10.146,16.227s2.138,3.621-0.667,5.231l-5.875,2.815c0,0-1.203,0.402-4.273-0.402
		c-3.072-0.804-8.279-2.279-9.88-2.279c-1.602,0-1.202-1.207-6.276,1.341S0,38.451,0,38.451V21.017z M33.547,26.918l-6.336-9.443
		c0,0-2.657-2.26-5.11,0.615c-2.454,2.872-1.023,4.516,0,5.337C23.122,24.25,33.547,26.918,33.547,26.918z"/>
	<path fill="#FFFFFF" d="M26.79,6.836L37.306,0.72c0,0,4.358-1.973,5.251,0.615c0.892,2.586,0.858,3.87-0.927,5.104
		c-1.787,1.237-9.386,5.666-9.386,5.666l11.017,2.397c0,0,4.828,4.77-1.602,6.53l-6.893-1.33L26.79,6.836z"/>
	<ellipse fill="#FFFFFF" cx="37.853" cy="34.496" rx="6.476" ry="6.504"/>
</g>
</svg>
