<?xml version="1.0" encoding="utf-8"?>
<!-- Generator: Adobe Illustrator 15.0.2, SVG Export Plug-In . SVG Version: 6.00 Build 0)  -->
<!DOCTYPE svg PUBLIC "-//W3C//DTD SVG 1.1//EN" "http://www.w3.org/Graphics/SVG/1.1/DTD/svg11.dtd">
<svg version="1.1" id="Layer_1" xmlns="http://www.w3.org/2000/svg" xmlns:xlink="http://www.w3.org/1999/xlink" x="0px" y="0px"
	 width="56px" height="33px" viewBox="0 0 56 33" enable-background="new 0 0 56 33" xml:space="preserve">
<g>
	<g>
		<path fill="#FFFFFF" d="M15.985,29.579c0,1.741-3.339,3.15-7.457,3.15h-1.07C3.34,32.729,0,31.32,0,29.579v-7.15
			c0-1.741,3.34-3.149,7.459-3.149h1.07c4.118,0,7.457,1.409,7.457,3.149V29.579z"/>
		<ellipse fill="#FFFFFF" cx="7.993" cy="12.452" rx="5.381" ry="5.356"/>
	</g>
	<g>
		<path fill="#FFFFFF" d="M38.572,29.414c0,1.981-4.318,3.586-9.646,3.586h-1.378c-5.326,0-9.645-1.605-9.645-3.586v-8.137
			c0-1.979,4.319-3.583,9.645-3.583h1.378c5.327,0,9.646,1.604,9.646,3.583V29.414z"/>
		<ellipse fill="#FFFFFF" cx="28.238" cy="7.655" rx="7.69" ry="7.652"/>
	</g>
	<g>
		<path fill="#FFFFFF" d="M56,29.079c0,1.792-3.341,3.245-7.459,3.245h-1.066c-4.121,0-7.461-1.453-7.461-3.245v-7.365
			c0-1.79,3.34-3.245,7.461-3.245h1.066c4.118,0,7.459,1.456,7.459,3.245V29.079z"/>
		<ellipse fill="#FFFFFF" cx="48.007" cy="12.022" rx="5.381" ry="5.355"/>
	</g>
</g>
</svg>
