<?xml version="1.0" encoding="utf-8"?>
<!-- Generator: Adobe Illustrator 15.0.2, SVG Export Plug-In . SVG Version: 6.00 Build 0)  -->
<!DOCTYPE svg PUBLIC "-//W3C//DTD SVG 1.1//EN" "http://www.w3.org/Graphics/SVG/1.1/DTD/svg11.dtd">
<svg version="1.1" id="Layer_1" xmlns="http://www.w3.org/2000/svg" xmlns:xlink="http://www.w3.org/1999/xlink" x="0px" y="0px"
	 width="40px" height="40px" viewBox="0 0 40 40" enable-background="new 0 0 40 40" xml:space="preserve">
<g>
	<g>
		<path fill="#FFFFFF" d="M20,40C8.971,40,0,31.028,0,20C0,8.971,8.971,0,20,0c11.03,0,20,8.971,20,20C40,31.028,31.03,40,20,40
			L20,40z M20,5.61C12.065,5.61,5.61,12.065,5.61,20S12.065,34.39,20,34.39c7.936,0,14.391-6.455,14.391-14.39S27.936,5.61,20,5.61
			L20,5.61z"/>
		<path fill="#FFFFFF" d="M22.456,21.604c0-3.82,0-7.638,0-11.458c0-2.877-4.463-2.877-4.463,0c0,3.82,0,7.638,0,11.458
			C17.993,24.48,22.456,24.48,22.456,21.604L22.456,21.604z"/>
		<path fill="#FFFFFF" d="M21.493,23.525c2.181-1.359,4.361-2.718,6.544-4.079c2.436-1.518,0.195-5.38-2.252-3.853
			c-2.183,1.359-4.365,2.719-6.546,4.078C16.802,21.189,19.041,25.052,21.493,23.525L21.493,23.525z"/>
	</g>
</g>
</svg>
