<?xml version="1.0" encoding="utf-8"?>
<!-- Generator: Adobe Illustrator 15.0.2, SVG Export Plug-In . SVG Version: 6.00 Build 0)  -->
<!DOCTYPE svg PUBLIC "-//W3C//DTD SVG 1.1//EN" "http://www.w3.org/Graphics/SVG/1.1/DTD/svg11.dtd">
<svg version="1.1" id="Layer_1" xmlns="http://www.w3.org/2000/svg" xmlns:xlink="http://www.w3.org/1999/xlink" x="0px" y="0px"
	 width="88px" height="88px" viewBox="0 0 88 88" enable-background="new 0 0 88 88" xml:space="preserve">
<path fill="#B4C435" d="M88,71.238C88,80.495,80.495,88,71.238,88H16.762C7.505,88,0,80.495,0,71.238V16.762
	C0,7.505,7.505,0,16.762,0h54.477C80.495,0,88,7.505,88,16.762V71.238z"/>
<g>
	<path fill="#FFFFFF" d="M47.622,34.294c1.349-0.641,1.925-2.253,1.286-3.604c-0.161-0.343-0.385-0.633-0.651-0.87
		c2.484-0.216,3.14-2.194,2.347-3.861c-0.64-1.349-2.277-2.502-4.212-0.893c0.201-0.627,0.174-1.33-0.13-1.976
		c-0.641-1.351-2.252-1.926-3.604-1.285c-1.083,0.512-1.667,1.651-1.527,2.778c-0.702-0.324-1.537-0.344-2.292,0.011
		c-1.351,0.641-1.928,2.252-1.289,3.604c0.429,0.896,1.284,1.454,2.205,1.535c-0.954,0.766-1.299,2.115-0.75,3.267
		c0.64,1.351,2.252,1.926,3.602,1.289c0.639-0.304,1.104-0.823,1.349-1.43C44.503,34.253,46.146,34.991,47.622,34.294z
		 M40.468,29.969c-0.873-1.848-0.086-4.048,1.759-4.922c1.848-0.876,4.051-0.088,4.923,1.76c0.873,1.843,0.089,4.047-1.758,4.921
		C43.545,32.601,41.342,31.814,40.468,29.969z"/>
	<path fill="#FFFFFF" d="M43.655,19.646c0,0-7.161-2.99,0.166-10.904C45.041,11.08,49.407,15.859,43.655,19.646z"/>
	<path fill="#FFFFFF" d="M44.178,36.29c0,0-7.16,2.99,0.166,10.905C45.565,44.855,49.932,40.078,44.178,36.29z"/>
	<path fill="#FFFFFF" d="M49.583,21.979c0,0-2.949-7.177,7.827-7.592C56.62,16.903,56.327,23.37,49.583,21.979z"/>
	<path fill="#FFFFFF" d="M38.183,34.119c0,0-7.177-2.948-7.592,7.83C33.107,41.157,39.574,40.865,38.183,34.119z"/>
	<path fill="#FFFFFF" d="M52.324,27.738c0,0,2.989-7.158,10.901,0.167C60.889,29.125,56.11,33.493,52.324,27.738z"/>
	<path fill="#FFFFFF" d="M35.679,28.263c0,0-2.99-7.16-10.905,0.167C27.113,29.649,31.892,34.016,35.679,28.263z"/>
	<path fill="#FFFFFF" d="M49.989,33.667c0,0,7.176-2.948,7.592,7.828C55.065,40.703,48.6,40.413,49.989,33.667z"/>
	<path fill="#FFFFFF" d="M37.85,22.268c0,0,2.948-7.177-7.829-7.592C30.812,17.191,31.103,23.658,37.85,22.268z"/>
</g>
</svg>
