<?xml version="1.0" encoding="utf-8"?>
<!-- Generator: Adobe Illustrator 15.0.2, SVG Export Plug-In . SVG Version: 6.00 Build 0)  -->
<!DOCTYPE svg PUBLIC "-//W3C//DTD SVG 1.1//EN" "http://www.w3.org/Graphics/SVG/1.1/DTD/svg11.dtd">
<svg version="1.1" id="Layer_1" xmlns="http://www.w3.org/2000/svg" xmlns:xlink="http://www.w3.org/1999/xlink" x="0px" y="0px"
	 width="88px" height="88px" viewBox="0 0 88 88" enable-background="new 0 0 88 88" xml:space="preserve">
<path fill="none" stroke="#D5805A" stroke-width="4" stroke-miterlimit="10" d="M86,70c0,8.836-7.164,16-16,16H18
	C9.164,86,2,78.836,2,70V18C2,9.164,9.164,2,18,2h52c8.836,0,16,7.164,16,16V70z"/>
<g>
	<path fill="#D5805A" d="M42.668,26.022L17.07,32.327c0,0-2.967,1.114-0.371,2.598c2.597,1.484,22.259,10.758,22.259,10.758
		s0,1.855,6.678,0c6.678-1.854,20.775-7.418,20.775-7.418l0.742,12.982l3.709-15.952l-25.598-9.273
		C45.265,26.022,46.007,25.65,42.668,26.022z"/>
	<path fill="#D5805A" d="M26.715,42.715L25.973,56.07c0,0,18.179,12.612,32.275,0.741c0.743-7.42,0.743-12.982,0.743-12.982
		L46.377,48.65c0,0-4.08,1.483-7.049,0.373C32.027,46.281,26.715,42.715,26.715,42.715z"/>
</g>
</svg>
