<?xml version="1.0" encoding="utf-8"?>
<!-- Generator: Adobe Illustrator 15.0.2, SVG Export Plug-In . SVG Version: 6.00 Build 0)  -->
<!DOCTYPE svg PUBLIC "-//W3C//DTD SVG 1.1//EN" "http://www.w3.org/Graphics/SVG/1.1/DTD/svg11.dtd">
<svg version="1.1" id="Layer_1" xmlns="http://www.w3.org/2000/svg" xmlns:xlink="http://www.w3.org/1999/xlink" x="0px" y="0px"
	 width="88px" height="88px" viewBox="0 0 88 88" enable-background="new 0 0 88 88" xml:space="preserve">
<path fill="none" stroke="#8C5278" stroke-width="4" stroke-miterlimit="10" d="M86,70c0,8.836-7.164,16-16,16H18
	C9.164,86,2,78.836,2,70V18C2,9.164,9.164,2,18,2h52c8.836,0,16,7.164,16,16V70z"/>
<path fill="#8C5278" d="M85.117,59.996c0.372-1.873,0.646-3.158,0.674-4.396c0.005-0.215-0.157-1.211-0.197-1.716
	c-0.324-0.528-0.574-1.054-0.789-1.569c-1.066-0.924-2.004-1.7-2.384-1.957c-1.229-0.472-6.135-3.773-7.172-4.151
	c-1.041-0.378-4.153-1.979-5.1-2.359c-0.944-0.378-4.057-4.059-5.566-5.379c-1.509-1.322-2.453-0.944-2.925-1.133
	c-0.479-0.188-3.491-1.416-4.628-1.887c-1.132-0.471-3.491-2.17-4.528-2.831c1.699-0.943,1.037-2.171,1.037-2.171
	s6.608-3.87,1.888-8.306c-4.718-4.435-12.646-4.058-13.401-4.058c-0.756,0-8.212,0.754-11.893,4.436
	c-3.681,3.68,1.133,7.644,1.795,8.118c0.661,0.471,0.565,1.037,1.227,1.415c0.659,0.378,0.376,1.132,0.376,1.132
	s0.189,1.792,0.095,2.832c-0.19-0.661-1.227,0-1.227,0s-0.756,2.359-0.19,4.248c0.567,1.885,2.831,1.981,2.831,1.981
	s0.284,3.113-0.282,4.153c-0.567,1.037-0.567,3.396-1.604,3.963c-1.04,0.567-9.062,2.08-11.61,3.115
	c-2.547,1.037-4.152,1.509-4.718,2.93c-0.567,1.413-1.511,3.682-2.928,7.451c-1.414,3.773-2.264,9.44-2.641,11.233
	c-0.069,0.329-1.089,6.552-1.239,7.346c1.755,0.967,0.211-0.823,0.998,0.91c0.972,0.36,2.435,0.507,3.166,1.128
	c0.304-0.024,1.501,0.217,1.821,0.217c1.054,0,2.509-0.17,3.382,0.087c0.277-0.038,2.004-0.329,2.298-0.348
	c0.309-1.429,0.801-4.421,0.898-5.183c0.51,0.701,1.039,2.018,1.519,5.313H60.62c0.121-2.379,0.275-2.911,0.47-3.432
	c0.848-2.264,4.059-7.738,5.477-8.872c1.414-1.134,3.113-0.376,10.854-0.941c2.505-0.184,5.619-1.014,7.153-1.291
	C84.857,66.432,84.418,63.521,85.117,59.996z M65.997,54.608c-0.66-1.796-2.078-2.645-2.736-3.021
	c-0.662-0.376-8.495-0.376-8.97-0.472c-0.473-0.097-2.356-1.418-3.303-1.037c-0.943,0.377-0.943,0.469-1.886-0.095
	c0.192-0.475-0.474-3.117-0.378-3.587c0.097-0.473,0.85-1.888,1.134-3.397c1.51,0.188,1.699-1.132,1.699-1.132
	s0.092-2.268,0.563-3.588c0.472-1.322-0.375-1.416-0.661-1.322c0.094-0.284,0.098-2.927,0.098-2.927l0.752-0.565
	c-0.375,1.131,5.003,5.189,5.003,5.189s-1.7,0.283,1.04,2.645c2.735,2.359,2.359,2.453,3.113,3.866
	c0.754,1.418,2.077,1.89,3.396,2.172C66.184,47.621,67.128,48,67.128,48s1.136,0.758,1.796,2.831
	c0.66,2.077,2.451,2.362,2.451,2.362s4.343,4.436,4.063,4.436C75.152,57.629,67.6,55.077,65.997,54.608z"/>
</svg>
