<?xml version="1.0" encoding="utf-8"?>
<!-- Generator: Adobe Illustrator 15.0.2, SVG Export Plug-In . SVG Version: 6.00 Build 0)  -->
<!DOCTYPE svg PUBLIC "-//W3C//DTD SVG 1.1//EN" "http://www.w3.org/Graphics/SVG/1.1/DTD/svg11.dtd">
<svg version="1.1" id="Layer_1" xmlns="http://www.w3.org/2000/svg" xmlns:xlink="http://www.w3.org/1999/xlink" x="0px" y="0px"
	 width="480px" height="74px" viewBox="0 0 480 74" enable-background="new 0 0 480 74" xml:space="preserve">
<g>
	<path fill="#604017" d="M83.284,29.916c0-0.965-0.511-1.41-1.412-1.41h-2.627v-5.32h5.966c2.823,0,4.104,1.215,4.104,3.59v1.215
		c0,1.025-0.063,1.86-0.063,1.86h0.128c1.542-3.78,6.031-7.435,11.1-7.435c5.516,0,8.659,2.5,9.75,7.37h0.129
		c1.796-3.91,6.287-7.37,11.547-7.37c7.316,0,10.715,4.165,10.715,12.435v14.034c0,0.961,0.513,1.409,1.412,1.409h2.632v5.319h-6.16
		c-2.886,0-4.107-1.215-4.107-4.1V36.196c0-4.55-0.896-8.14-5.708-8.14c-4.492,0-7.958,3.91-9.111,8.33
		c-0.323,1.351-0.514,2.759-0.514,4.425v14.804h-6.224V36.196c0-4.23-0.642-8.14-5.583-8.14c-4.745,0-8.083,3.975-9.301,8.589
		c-0.32,1.28-0.448,2.69-0.448,4.164v14.805h-6.225V29.916z"/>
	<path fill="#604017" d="M143.721,29.916c0-0.965-0.512-1.41-1.411-1.41h-2.633v-5.32h6.096c2.888,0,4.106,1.215,4.106,4.1v21.599
		c0,0.961,0.514,1.409,1.412,1.409h2.63v5.319h-6.096c-2.885,0-4.104-1.215-4.104-4.1V29.916L143.721,29.916z M143.849,10.367h5.581
		v6.474h-5.581V10.367z"/>
	<path fill="#604017" d="M161.042,29.916c0-0.965-0.514-1.41-1.412-1.41H157v-5.32h5.966c2.76,0,4.106,1.215,4.106,3.59v1.215
		c0,1.025-0.128,1.86-0.128,1.86h0.128c1.284-2.82,5.132-7.435,12.189-7.435c7.7,0,11.166,4.165,11.166,12.435v14.034
		c0,0.961,0.511,1.409,1.412,1.409h2.627v5.319h-6.158c-2.885,0-4.106-1.215-4.106-4.1V36.261c0-4.55-0.897-8.14-6.094-8.14
		c-5.005,0-8.981,3.27-10.266,7.945c-0.447,1.284-0.577,2.759-0.577,4.359v15.188h-6.224L161.042,29.916L161.042,29.916z"/>
	<path fill="#604017" d="M201.075,29.916c0-0.965-0.513-1.41-1.411-1.41h-2.63v-5.32h6.095c2.948,0,4.169,1.215,4.169,3.975V42.54
		c0,4.485,0.896,8.075,6.028,8.075c6.674,0,10.587-5.829,10.587-12.24V23.186h6.224v25.699c0,0.961,0.513,1.409,1.412,1.409h2.63
		v5.319h-5.968c-2.758,0-4.104-1.278-4.104-3.59v-1.213c0-1.025,0.062-1.859,0.062-1.859h-0.128
		c-1.347,3.203-5.518,7.433-11.934,7.433c-7.313,0-11.034-3.843-11.034-12.433V29.916H201.075z"/>
	<path fill="#604017" d="M241.299,28.186h-4.234v-5h4.362v-8.91h6.097v8.91h7.762v5h-7.762v14.871c0,6.469,4.49,7.303,6.865,7.303
		c0.896,0,1.475-0.131,1.475-0.131v5.516c0,0-0.836,0.127-2.184,0.127c-4.104,0-12.381-1.279-12.381-12.11V28.186L241.299,28.186z"
		/>
	<path fill="#604017" d="M276.198,22.416c9.114,0,13.987,6.795,13.987,15.189c0,0.834-0.191,2.564-0.191,2.564H266.32
		c0.385,6.92,5.392,10.831,11.162,10.831c5.584,0,9.496-3.78,9.496-3.78l2.693,4.42c0,0-4.809,4.742-12.509,4.742
		c-10.265,0-17.261-7.367-17.261-16.98C259.904,29.081,266.962,22.416,276.198,22.416z M283.771,35.621
		c-0.191-5.385-3.594-8.27-7.635-8.27c-4.75,0-8.598,2.885-9.56,8.27H283.771z"/>
	<path fill="#B4C434" d="M298.652,27.031h-4.038v-3.654h4.038v-1.151c0-10.64,7.506-11.989,11.1-11.989
		c1.223,0,1.988,0.13,1.988,0.13v3.909c0,0-0.575-0.13-1.537-0.13c-2.438,0-7.188,0.9-7.188,8.08v1.151h8.215v3.654h-8.215v28.583
		h-4.363V27.031z"/>
	<path fill="#B4C434" d="M321.406,15.751c0-0.9-0.512-1.41-1.41-1.41h-2.693v-3.785h4.555c2.76,0,3.912,1.156,3.912,3.911v35.957
		c0,0.961,0.515,1.412,1.414,1.412h2.692v3.777h-4.556c-2.758,0-3.914-1.152-3.914-3.907V15.751L321.406,15.751z"/>
	<path fill="#B4C434" d="M351.177,22.607c9.433,0,17.064,7.179,17.064,16.729c0,9.744-7.632,17.047-16.999,17.047
		c-9.432,0-17.067-7.303-17.067-17.047C334.175,29.786,341.811,22.607,351.177,22.607z M351.242,52.475
		c6.865,0,12.509-5.641,12.509-13.139c0-7.305-5.644-12.755-12.509-12.755c-6.928,0-12.574,5.45-12.574,12.755
		C338.668,46.834,344.314,52.475,351.242,52.475z"/>
	<path fill="#B4C434" d="M373.889,28.631c-0.387-1.15-1.092-1.47-2.242-1.47h-0.838v-3.784h2.248c3.076,0,4.104,0.579,5.065,3.589
		l6.61,20.445c0.511,1.539,0.963,3.464,0.963,3.464h0.13c0,0,0.51-1.925,1.022-3.464l7.889-23.905h4.363l7.894,23.905
		c0.514,1.539,1.027,3.464,1.027,3.464h0.13c0,0,0.38-1.859,0.896-3.464l6.671-20.445c0.961-3.01,1.991-3.589,5.071-3.589h2.242
		v3.784h-0.897c-1.091,0-1.86,0.32-2.245,1.47l-9.239,26.982h-4.81l-7.896-22.942c-0.512-1.6-0.959-3.46-0.959-3.46h-0.13
		c0,0-0.448,1.86-1.026,3.46l-7.827,22.942h-4.877L373.889,28.631z"/>
	<path fill="#B4C434" d="M441.509,22.607c8.918,0,13.538,6.859,13.538,14.869c0,0.769-0.13,2.18-0.13,2.18h-24.764
		c0.13,8.139,5.838,12.818,12.512,12.818c5.9,0,9.686-3.977,9.686-3.977l2.115,3.271c0,0-4.679,4.611-11.996,4.611
		c-9.559,0-16.872-6.92-16.872-16.852C425.598,28.951,432.85,22.607,441.509,22.607z M450.557,36.196
		c-0.26-6.665-4.362-9.935-9.112-9.935c-5.325,0-10.004,3.46-11.097,9.935H450.557z"/>
	<path fill="#B4C434" d="M463.771,28.571c0-0.9-0.518-1.41-1.413-1.41h-2.69v-3.784h4.487c2.692,0,3.915,1.089,3.915,3.654v2.18
		c0,1.345-0.13,2.435-0.13,2.435h0.13c1.537-4.87,5.13-8.589,10.198-8.589c0.899,0,1.731,0.195,1.731,0.195v4.29
		c0,0-0.77-0.125-1.602-0.125c-4.557,0-7.957,3.59-9.367,8.33c-0.642,2.05-0.896,4.229-0.896,6.285v13.583h-4.363V28.571z"/>
</g>
<g>
	<path fill="#B4C434" d="M44.014,49.174c2.596-1.232,3.708-4.336,2.477-6.935c-0.312-0.66-0.74-1.22-1.253-1.673
		c4.784-0.416,6.044-4.223,4.518-7.432c-1.232-2.595-4.385-4.814-8.111-1.717c0.385-1.207,0.333-2.561-0.251-3.802
		c-1.234-2.6-4.338-3.707-6.942-2.474c-2.087,0.986-3.21,3.179-2.941,5.346c-1.351-0.624-2.959-0.663-4.414,0.021
		c-2.603,1.232-3.715,4.334-2.483,6.934c0.827,1.725,2.474,2.798,4.248,2.954c-1.838,1.475-2.502,4.07-1.447,6.287
		c1.232,2.601,4.338,3.707,6.938,2.479c1.231-0.584,2.125-1.584,2.598-2.752C38.005,49.096,41.169,50.516,44.014,49.174z
		 M30.232,40.852c-1.682-3.555-0.167-7.79,3.388-9.472c3.559-1.687,7.802-0.168,9.483,3.386c1.682,3.546,0.171,7.791-3.387,9.47
		C36.159,45.915,31.917,44.402,30.232,40.852z"/>
	<path fill="#B4C434" d="M36.371,20.985c0,0-13.793-5.754,0.321-20.985C39.04,4.5,47.452,13.697,36.371,20.985z"/>
	<path fill="#B4C434" d="M37.379,53.014c0,0-13.793,5.756,0.32,20.986C40.051,69.498,48.463,60.305,37.379,53.014z"/>
	<path fill="#B4C434" d="M47.79,25.476c0,0-5.68-13.812,15.079-14.612C61.345,15.706,60.784,28.151,47.79,25.476z"/>
	<path fill="#B4C434" d="M25.831,48.837c0,0-13.826-5.674-14.626,15.065C16.051,62.381,28.509,61.818,25.831,48.837z"/>
	<path fill="#B4C434" d="M53.069,36.559c0,0,5.76-13.777,21.003,0.32C69.568,39.229,60.364,47.632,53.069,36.559z"/>
	<path fill="#B4C434" d="M21.006,37.566c0,0-5.76-13.777-21.006,0.322C4.505,40.234,13.711,48.639,21.006,37.566z"/>
	<path fill="#B4C434" d="M48.573,47.967c0,0,13.826-5.674,14.624,15.062C58.351,61.508,45.896,60.949,48.573,47.967z"/>
	<path fill="#B4C434" d="M25.188,26.029c0,0,5.678-13.809-15.082-14.609C11.631,16.262,12.191,28.707,25.188,26.029z"/>
	<g>
		<line fill="none" stroke="#604017" stroke-width="1.8304" x1="37.286" y1="37.444" x2="51.368" y2="32.586"/>
		<line fill="none" stroke="#604017" stroke-width="1.8304" x1="36.377" y1="37.317" x2="36.328" y2="11.855"/>
		<path fill="#604017" d="M38.869,37.824c0-1.289-1.046-2.335-2.338-2.335c-1.292,0-2.335,1.047-2.335,2.335
			c0,1.298,1.043,2.343,2.335,2.343C37.823,40.167,38.869,39.122,38.869,37.824z"/>
	</g>
</g>
</svg>
