<?xml version="1.0" encoding="utf-8"?>
<!-- Generator: Adobe Illustrator 15.0.2, SVG Export Plug-In . SVG Version: 6.00 Build 0)  -->
<!DOCTYPE svg PUBLIC "-//W3C//DTD SVG 1.1//EN" "http://www.w3.org/Graphics/SVG/1.1/DTD/svg11.dtd">
<svg version="1.1" id="Layer_1" xmlns="http://www.w3.org/2000/svg" xmlns:xlink="http://www.w3.org/1999/xlink" x="0px" y="0px"
	 width="88px" height="88px" viewBox="0 0 88 88" enable-background="new 0 0 88 88" xml:space="preserve">
<path fill="#678EAF" d="M15.496,84.199c0,0,18.976-39.043,27.655-37.418c1.039,11.475-6.556,29.871-11.436,37.467
	C22.495,86.955,15.496,84.199,15.496,84.199z"/>
<path fill="#678EAF" d="M53.96,15.111c0,0,0.108,8.317-12.993,12.995c-7.174,4.159-5.719,12.477-2.599,14.037
	c3.118,1.559,11.434,8.317,17.154,2.079C57.6,40.583,63.84,34.865,53.96,15.111z"/>
<path fill="none" stroke="#678EAF" stroke-width="4" stroke-miterlimit="10" d="M86,70c0,8.836-7.164,16-16,16H18
	C9.164,86,2,78.836,2,70V18C2,9.164,9.164,2,18,2h52c8.836,0,16,7.164,16,16V70z"/>
</svg>
