<?xml version="1.0" encoding="utf-8"?>
<!-- Generator: Adobe Illustrator 15.0.2, SVG Export Plug-In . SVG Version: 6.00 Build 0)  -->
<!DOCTYPE svg PUBLIC "-//W3C//DTD SVG 1.1//EN" "http://www.w3.org/Graphics/SVG/1.1/DTD/svg11.dtd">
<svg version="1.1" id="Layer_1" xmlns="http://www.w3.org/2000/svg" xmlns:xlink="http://www.w3.org/1999/xlink" x="0px" y="0px"
	 width="88px" height="88px" viewBox="0 0 88 88" enable-background="new 0 0 88 88" xml:space="preserve">
<path fill="none" stroke="#929B3F" stroke-width="4" stroke-miterlimit="10" d="M86,70c0,8.836-7.164,16-16,16H18
	C9.164,86,2,78.836,2,70V18C2,9.164,9.164,2,18,2h52c8.836,0,16,7.164,16,16V70z"/>
<g>
	<path fill="#929B3F" d="M44.956,70.415h1.912c0,0-1.435-7.49,1.913-11.477c3.348-3.982,8.289,0,15.301-5.102
		c7.015-5.098,7.652-13.387,7.652-13.387s-8.448-4.303-16.896,1.275C46.391,47.304,44.319,52.243,44.956,70.415z"/>
	<path fill="#929B3F" d="M44.319,45.073c0,0,16.895-12.593-0.16-29.49C44.159,15.583,28.061,28.654,44.319,45.073z"/>
	<path fill="#929B3F" d="M42.565,55.751c0,0-3.188-21.677-26.3-15.301C16.266,40.45,20.569,64.04,42.565,55.751z"/>
</g>
</svg>
