<?xml version="1.0" encoding="utf-8"?>
<!-- Generator: Adobe Illustrator 14.0.0, SVG Export Plug-In . SVG Version: 6.00 Build 43363)  -->
<!DOCTYPE svg PUBLIC "-//W3C//DTD SVG 1.1//EN" "http://www.w3.org/Graphics/SVG/1.1/DTD/svg11.dtd" [
	<!ENTITY st0 "fill:#B3C700;">
	<!ENTITY st1 "fill:none;stroke:#603F10;stroke-width:1.1009;">
	<!ENTITY st2 "fill:#603F10;">
	<!ENTITY st3 "fill:#FFFFFF;">
]>
<svg version="1.1" id="Layer_1" xmlns="http://www.w3.org/2000/svg" xmlns:xlink="http://www.w3.org/1999/xlink" x="0px" y="0px"
	 width="325px" height="80px" viewBox="0 0 325 80" style="enable-background:new 0 0 325 80;" xml:space="preserve">
<g>
	<g>
		<g>
			<path style="&st2;" d="M68.728,36.781c0-0.581-0.307-0.85-0.849-0.85h-1.58v-3.201h3.586c1.697,0,2.467,0.731,2.467,2.16v0.732
				c0,0.616-0.038,1.119-0.038,1.119h0.077c0.927-2.275,3.625-4.475,6.673-4.475c3.316,0,5.205,1.504,5.861,4.436h0.078
				c1.08-2.354,3.779-4.436,6.941-4.436c4.398,0,6.441,2.506,6.441,7.482v8.445c0,0.578,0.309,0.848,0.849,0.848h1.582v3.201h-3.703
				c-1.735,0-2.469-0.73-2.469-2.467V40.56c0-2.738-0.539-4.897-3.431-4.897c-2.7,0-4.784,2.352-5.477,5.012
				c-0.194,0.812-0.309,1.66-0.309,2.662v8.908h-3.741V40.56c0-2.546-0.386-4.897-3.356-4.897c-2.852,0-4.859,2.391-5.591,5.168
				c-0.192,0.771-0.27,1.619-0.27,2.506v8.908h-3.742V36.781z"/>
			<path style="&st3;" d="M103.816,55.244h-6.703c-3.373,0-5.469-2.095-5.469-5.467V40.56c0-1.151-0.12-1.673-0.194-1.886
				c-0.057-0.006-0.135-0.012-0.237-0.012c-1.203,0-2.224,1.426-2.574,2.769c-0.142,0.597-0.211,1.203-0.211,1.905v11.908h-9.741
				V40.56c0-1.14-0.1-1.661-0.173-1.89c-0.048-0.005-0.108-0.008-0.183-0.008c-1.324,0-2.306,1.473-2.69,2.934
				c-0.11,0.439-0.17,1.038-0.17,1.74v11.908h-9.742V38.932h-2.428v-9.201h6.586c1.523,0,2.799,0.426,3.734,1.189
				c1.548-1.003,3.41-1.653,5.445-1.653c2.666,0,4.824,0.778,6.371,2.253c1.845-1.42,4.144-2.253,6.509-2.253
				c6,0,9.441,3.821,9.441,10.482v6.293h2.431V55.244L103.816,55.244z"/>
		</g>
		<g>
			<path style="&st2;" d="M105.059,36.781c0-0.581-0.308-0.85-0.848-0.85h-1.583v-3.201h3.665c1.736,0,2.468,0.731,2.468,2.467
				v12.997c0,0.578,0.309,0.848,0.849,0.848h1.581v3.201h-3.665c-1.734,0-2.467-0.73-2.467-2.467V36.781z M105.135,25.017h3.355
				v3.896h-3.355V25.017z"/>
			<path style="&st3;" d="M114.19,55.244h-6.665c-3.373,0-5.467-2.095-5.467-5.467V38.932h-2.431v-9.201h2.507v-7.714h9.355v9.896
				h-0.618c0.576,0.874,0.888,1.984,0.888,3.285v10.845h2.43V55.244L114.19,55.244z"/>
		</g>
		<g>
			<path style="&st2;" d="M115.47,36.781c0-0.581-0.309-0.85-0.849-0.85h-1.581v-3.201h3.586c1.659,0,2.468,0.731,2.468,2.16v0.732
				c0,0.616-0.077,1.119-0.077,1.119h0.077c0.772-1.697,3.085-4.475,7.328-4.475c4.628,0,6.712,2.506,6.712,7.482v8.445
				c0,0.578,0.307,0.848,0.849,0.848h1.58v3.201h-3.702c-1.734,0-2.468-0.73-2.468-2.467v-9.179c0-2.738-0.539-4.897-3.663-4.897
				c-3.009,0-5.399,1.967-6.171,4.78c-0.269,0.772-0.347,1.66-0.347,2.623v9.14h-3.741V36.781z"/>
			<path style="&st3;" d="M138.563,55.244h-6.702c-3.373,0-5.468-2.095-5.468-5.467v-9.179c0-1.187-0.13-1.68-0.199-1.858
				c-0.083-0.018-0.23-0.039-0.464-0.039c-1.586,0-2.842,0.986-3.278,2.574l-0.06,0.193c-0.121,0.348-0.18,0.883-0.18,1.636v12.14
				h-9.741V38.932h-2.43v-9.201h6.586c1.547,0,2.84,0.439,3.779,1.226c1.606-1.01,3.618-1.689,6.017-1.689
				c3.627,0,9.712,1.362,9.712,10.482v6.293h2.428V55.244L138.563,55.244z"/>
		</g>
		<g>
			<path style="&st2;" d="M139.536,36.781c0-0.581-0.308-0.85-0.848-0.85h-1.581v-3.201h3.664c1.772,0,2.506,0.731,2.506,2.392
				v9.254c0,2.699,0.539,4.859,3.624,4.859c4.012,0,6.364-3.508,6.364-7.365v-9.14h3.741v15.464c0,0.578,0.309,0.848,0.849,0.848
				h1.581v3.201h-3.588c-1.658,0-2.467-0.77-2.467-2.16v-0.73c0-0.617,0.038-1.119,0.038-1.119h-0.077
				c-0.81,1.928-3.317,4.473-7.174,4.473c-4.396,0-6.633-2.312-6.633-7.481V36.781z"/>
			<path style="&st3;" d="M146.168,55.707c-3.598,0-9.633-1.361-9.633-10.481v-6.294h-2.429v-9.201h6.664
				c3.396,0,5.506,2.066,5.506,5.392v9.254c0,1.155,0.126,1.644,0.195,1.824c0.08,0.017,0.217,0.035,0.429,0.035
				c2.661,0,3.364-2.855,3.364-4.365v-12.14h9.741v16.312h2.43v9.201h-6.588c-1.515,0-2.8-0.445-3.743-1.23
				C150.484,55.04,148.479,55.707,146.168,55.707L146.168,55.707z"/>
		</g>
		<g>
			<path style="&st2;" d="M163.716,35.74h-2.546v-3.009h2.623V27.37h3.664v5.361h4.666v3.009h-4.666v8.947
				c0,3.893,2.699,4.395,4.127,4.395c0.539,0,0.887-0.078,0.887-0.078v3.318c0,0-0.502,0.076-1.312,0.076
				c-2.467,0-7.442-0.77-7.442-7.287V35.74z"/>
			<path style="&st3;" d="M171.158,55.398c-6.441,0-10.442-3.941-10.442-10.287V38.74h-2.546v-9.009h2.623V24.37h9.664v5.361h4.666
				v9.009h-4.666v5.947c0,1.395,0.354,1.395,1.127,1.395c0.182,0,0.297-0.02,0.298-0.02l3.658-0.822l-0.069,3.764v5.897l-2.55,0.387
				C172.8,55.307,172.146,55.398,171.158,55.398L171.158,55.398z"/>
		</g>
		<g>
			<path style="&st2;" d="M184.695,32.268c5.479,0,8.408,4.089,8.408,9.141c0,0.502-0.115,1.543-0.115,1.543h-14.23
				c0.23,4.164,3.24,6.518,6.709,6.518c3.357,0,5.709-2.275,5.709-2.275l1.619,2.66c0,0-2.891,2.854-7.52,2.854
				c-6.17,0-10.375-4.434-10.375-10.219C174.9,36.278,179.143,32.268,184.695,32.268z M189.248,40.213
				c-0.115-3.24-2.16-4.976-4.59-4.976c-2.855,0-5.168,1.735-5.746,4.976H189.248z"/>
			<path style="&st3;" d="M185.275,55.707c-7.625,0-13.375-5.683-13.375-13.219c0-7.661,5.381-13.221,12.795-13.221
				c6.717,0,11.408,4.992,11.408,12.141c0,0.619-0.103,1.59-0.134,1.873l-0.295,2.67h-1.743l2.66,4.37l-1.689,1.667
				C194.517,52.369,190.971,55.707,185.275,55.707L185.275,55.707z M183.465,45.951c1.356,0.801,3.082,0.514,4.184,0H183.465
				L183.465,45.951z"/>
		</g>
		<g>
			<path style="&st0;" d="M198.193,35.045h-2.428v-2.199h2.428v-0.692c0-6.402,4.512-7.214,6.672-7.214
				c0.734,0,1.195,0.078,1.195,0.078v2.353c0,0-0.346-0.078-0.924-0.078c-1.465,0-4.32,0.542-4.32,4.862v0.692h4.938v2.199h-4.938
				v17.199h-2.623V35.045z"/>
			<path style="&st3;" d="M203.816,55.244h-8.623V38.045h-2.428v-8.199h2.607c0.954-5.786,5.52-7.907,9.492-7.907
				c0.939,0,1.578,0.1,1.696,0.12l2.499,0.424v8.64l-0.307-0.069v6.991h-4.938V55.244L203.816,55.244z"/>
		</g>
		<g>
			<path style="&st0;" d="M211.871,28.257c0-0.542-0.307-0.849-0.848-0.849h-1.619v-2.277h2.738c1.658,0,2.352,0.695,2.352,2.353
				v21.637c0,0.578,0.309,0.85,0.85,0.85h1.619v2.273h-2.738c-1.658,0-2.354-0.693-2.354-2.352V28.257z"/>
			<path style="&st3;" d="M219.963,55.244h-5.738c-3.302,0-5.354-2.051-5.354-5.352V30.409h-2.467v-8.277h5.738
				c3.301,0,5.352,2.051,5.352,5.353v19.486h2.469V55.244L219.963,55.244z"/>
		</g>
		<g>
			<path style="&st0;" d="M229.768,32.382c5.67,0,10.258,4.321,10.258,10.067c0,5.863-4.588,10.258-10.219,10.258
				c-5.67,0-10.26-4.395-10.26-10.258C219.547,36.703,224.137,32.382,229.768,32.382z M229.807,50.355
				c4.127,0,7.52-3.395,7.52-7.906c0-4.396-3.393-7.676-7.52-7.676c-4.164,0-7.559,3.279-7.559,7.676
				C222.248,46.961,225.643,50.355,229.807,50.355z"/>
			<path style="&st3;" d="M229.807,55.707c-7.436,0-13.26-5.823-13.26-13.258c0-7.327,5.808-13.067,13.221-13.067
				c7.435,0,13.258,5.74,13.258,13.067C243.025,49.884,237.219,55.707,229.807,55.707L229.807,55.707z M229.807,37.773
				c-2.599,0-4.559,2.01-4.559,4.676c0,2.797,1.96,4.906,4.559,4.906c2.534,0,4.52-2.155,4.52-4.906
				C234.326,39.783,232.383,37.773,229.807,37.773L229.807,37.773z"/>
		</g>
		<g>
			<path style="&st0;" d="M243.42,36.008c-0.232-0.692-0.656-0.885-1.348-0.885h-0.504v-2.277h1.352c1.85,0,2.467,0.349,3.045,2.16
				l3.975,12.303c0.307,0.926,0.578,2.084,0.578,2.084h0.078c0,0,0.307-1.158,0.615-2.084l4.742-14.385h2.623l4.744,14.385
				c0.309,0.926,0.617,2.084,0.617,2.084h0.078c0,0,0.229-1.119,0.539-2.084l4.01-12.303c0.578-1.812,1.197-2.16,3.049-2.16h1.348
				v2.277h-0.539c-0.656,0-1.119,0.192-1.35,0.885l-5.555,16.236h-2.891l-4.746-13.806c-0.307-0.963-0.576-2.082-0.576-2.082h-0.078
				c0,0-0.27,1.119-0.617,2.082l-4.705,13.806h-2.932L243.42,36.008z"/>
			<path style="&st3;" d="M267.662,55.244h-7.176l-3.231-9.399l-3.203,9.399h-7.224l-5.855-17.121h-2.404v-8.277h4.352
				c3.229,0,4.94,1.231,5.903,4.248l1.774,5.493l3.186-9.664h6.963l3.179,9.638l1.787-5.485c0.957-3,2.669-4.23,5.901-4.23h4.348
				v8.277h-2.441L267.662,55.244L267.662,55.244z"/>
		</g>
		<g>
			<path style="&st0;" d="M284.068,32.382c5.361,0,8.139,4.127,8.139,8.948c0,0.463-0.078,1.312-0.078,1.312h-14.887
				c0.078,4.897,3.51,7.714,7.521,7.714c3.547,0,5.822-2.393,5.822-2.393l1.271,1.969c0,0-2.812,2.775-7.211,2.775
				c-5.746,0-10.143-4.164-10.143-10.141C274.504,36.2,278.863,32.382,284.068,32.382z M289.508,40.56
				c-0.156-4.011-2.623-5.978-5.479-5.978c-3.201,0-6.014,2.082-6.67,5.978H289.508z"/>
			<path style="&st3;" d="M284.646,55.707c-7.492,0-13.143-5.649-13.143-13.141c0-7.639,5.284-13.184,12.564-13.184
				c6.559,0,11.139,4.913,11.139,11.948c0,0.572-0.075,1.422-0.091,1.587l-0.251,2.725h-2.219l3.055,4.712l-1.736,1.714
				C293.587,52.439,290.118,55.707,284.646,55.707L284.646,55.707z M281.154,45.642c0.901,1.226,2.326,1.714,3.609,1.714
				c2.156,0,3.66-1.473,3.675-1.487l0.228-0.227H281.154L281.154,45.642z"/>
		</g>
		<g>
			<path style="&st0;" d="M297.451,35.971c0-0.541-0.311-0.848-0.85-0.848h-1.617v-2.277h2.697c1.619,0,2.354,0.656,2.354,2.199
				v1.312c0,0.81-0.078,1.465-0.078,1.465h0.078c0.924-2.931,3.084-5.168,6.131-5.168c0.541,0,1.041,0.117,1.041,0.117v2.582
				c0,0-0.463-0.075-0.963-0.075c-2.738,0-4.783,2.16-5.631,5.013c-0.385,1.233-0.539,2.545-0.539,3.781v8.174h-2.623V35.971z"/>
			<path style="&st3;" d="M303.074,55.244h-8.623V38.123h-2.467v-8.277h5.697c1.536,0,2.802,0.431,3.716,1.215
				c1.399-0.912,3.022-1.408,4.769-1.408c0.845,0,1.586,0.164,1.726,0.196l2.315,0.543v8.487l-3.481-0.566
				c-0.052-0.008-0.283-0.037-0.481-0.037c-1.403,0-2.343,1.481-2.755,2.867c-0.275,0.884-0.415,1.883-0.415,2.927V55.244
				L303.074,55.244z"/>
		</g>
	</g>
	<g>
		<g>
			<path style="&st0;" d="M45.121,48.369c1.561-0.742,2.229-2.609,1.489-4.173c-0.188-0.397-0.445-0.733-0.753-1.007
				c2.876-0.25,3.633-2.541,2.716-4.471c-0.741-1.562-2.636-2.897-4.876-1.033c0.231-0.727,0.2-1.541-0.151-2.288
				c-0.742-1.564-2.608-2.23-4.173-1.489c-1.254,0.594-1.93,1.913-1.768,3.217c-0.812-0.375-1.779-0.398-2.653,0.014
				c-1.564,0.741-2.233,2.607-1.493,4.172c0.497,1.038,1.487,1.684,2.553,1.777c-1.105,0.887-1.504,2.449-0.87,3.783
				c0.741,1.564,2.608,2.23,4.171,1.492c0.74-0.352,1.278-0.953,1.562-1.656C41.509,48.322,43.411,49.176,45.121,48.369z
				 M36.836,43.361c-1.011-2.14-0.1-4.688,2.037-5.699c2.139-1.016,4.69-0.102,5.701,2.037c1.011,2.135,0.103,4.688-2.036,5.699
				C40.399,46.408,37.849,45.498,36.836,43.361z"/>
			<path style="&st3;" d="M43.767,51.678L43.767,51.678c-1.028,0-2.021-0.266-2.897-0.741c-0.088,0.048-0.178,0.094-0.27,0.137
				c-0.833,0.394-1.713,0.591-2.624,0.591c-2.359,0-4.536-1.377-5.545-3.509c-0.589-1.239-0.732-2.588-0.474-3.854
				c-0.489-0.486-0.899-1.058-1.204-1.695c-1.452-3.067-0.142-6.731,2.914-8.179c0.516-0.243,1.049-0.411,1.596-0.504
				c0.602-1.166,1.578-2.136,2.826-2.727c0.829-0.393,1.712-0.591,2.625-0.591c2.233,0,4.303,1.234,5.374,3.175
				c2.184,0.085,4.161,1.469,5.197,3.653c0.906,1.905,0.869,4.055-0.1,5.746c-0.348,0.606-0.793,1.131-1.323,1.565
				c0.331,2.562-0.994,5.165-3.451,6.333C45.564,51.478,44.678,51.678,43.767,51.678L43.767,51.678z"/>
		</g>
		<g>
			<path style="&st0;" d="M40.526,31.406c0,0-8.292-3.462,0.193-12.627C42.131,21.487,47.188,27.021,40.526,31.406z"/>
			<path style="&st3;" d="M40.843,34.79l-1.473-0.615c-0.443-0.185-4.356-1.932-5.286-6.207c-0.752-3.459,0.739-7.237,4.433-11.228
				l2.893-3.125l1.969,3.776c0.176,0.338,0.423,0.726,0.691,1.157c1.706,2.738,6.237,10.01-1.895,15.363L40.843,34.79L40.843,34.79z
				 M40.417,24.3c-0.437,0.917-0.605,1.723-0.476,2.363c0.072,0.357,0.24,0.669,0.444,0.933
				C41.078,26.688,41.048,25.712,40.417,24.3L40.417,24.3z"/>
		</g>
		<g>
			<path style="&st0;" d="M41.133,50.68c0,0-8.292,3.463,0.192,12.629C42.739,60.6,47.795,55.066,41.133,50.68z"/>
			<path style="&st3;" d="M42.016,68.471l-2.892-3.124c-3.694-3.991-5.186-7.769-4.433-11.229c0.93-4.275,4.843-6.021,5.286-6.207
				l1.473-0.615l1.333,0.878c8.133,5.355,3.6,12.628,1.893,15.366c-0.268,0.431-0.515,0.818-0.691,1.156L42.016,68.471
				L42.016,68.471z M40.992,54.489c-0.205,0.264-0.372,0.576-0.445,0.934c-0.129,0.641,0.039,1.447,0.476,2.365
				C41.656,56.375,41.685,55.398,40.992,54.489L40.992,54.489z"/>
		</g>
		<g>
			<path style="&st0;" d="M47.391,34.109c0,0-3.415-8.312,9.064-8.793C55.539,28.23,55.202,35.719,47.391,34.109z"/>
			<path style="&st3;" d="M49.427,37.333c-0.833,0-1.721-0.096-2.642-0.286l-1.563-0.322l-0.606-1.476
				c-0.183-0.444-1.715-4.446,0.651-8.127c1.914-2.978,5.64-4.594,11.073-4.804l4.254-0.165l-1.277,4.062
				c-0.114,0.364-0.214,0.812-0.329,1.306C58.306,30.458,56.71,37.333,49.427,37.333L49.427,37.333z M52.322,29.013
				c-0.949,0.338-1.632,0.788-1.991,1.329c-0.198,0.298-0.3,0.631-0.343,0.957C51.052,31.151,51.732,30.526,52.322,29.013
				L52.322,29.013z"/>
		</g>
		<g>
			<path style="&st0;" d="M34.19,48.166c0,0-8.311-3.414-8.792,9.066C28.312,56.316,35.8,55.979,34.19,48.166z"/>
			<path style="&st3;" d="M22.236,61.371l0.165-4.254c0.431-11.172,6.708-12.378,9.386-12.378c1.862,0,3.279,0.543,3.544,0.651
				l1.477,0.606l0.322,1.563c1.965,9.537-6.383,11.475-9.525,12.205c-0.494,0.114-0.942,0.214-1.306,0.329L22.236,61.371
				L22.236,61.371z M31.396,50.767c-1.049,0.153-1.828,0.942-2.332,2.357C30.523,52.571,31.241,51.902,31.396,50.767L31.396,50.767z
				"/>
		</g>
		<g>
			<path style="&st0;" d="M50.564,40.777c0,0,3.462-8.29,12.626,0.193C60.482,42.384,54.95,47.441,50.564,40.777z"/>
			<path style="&st3;" d="M55.812,47.14c-2.123,0-5.19-0.817-7.754-4.714l-0.877-1.332l0.615-1.473
				c0.849-2.032,3.481-5.471,7.962-5.471c2.973,0,6.159,1.554,9.47,4.62l3.124,2.892l-3.774,1.97
				c-0.338,0.176-0.726,0.422-1.156,0.69C61.514,45.511,58.901,47.14,55.812,47.14L55.812,47.14z M54.39,40.628
				c0.673,0.512,1.177,0.512,1.423,0.512c0.579,0,1.217-0.188,1.863-0.472c-0.887-0.421-1.521-0.518-1.917-0.518
				C55.209,40.15,54.753,40.355,54.39,40.628L54.39,40.628z"/>
		</g>
		<g>
			<path style="&st0;" d="M31.29,41.385c0,0-3.462-8.291-12.627,0.193C21.371,42.99,26.905,48.047,31.29,41.385z"/>
			<path style="&st3;" d="M26.042,47.746C26.042,47.746,26.042,47.746,26.042,47.746c-3.089,0-5.703-1.628-7.61-2.817
				c-0.431-0.269-0.818-0.515-1.157-0.69L13.5,42.27l3.125-2.893c3.312-3.066,6.499-4.62,9.471-4.62
				c4.481,0,7.114,3.439,7.962,5.472l0.615,1.473l-0.877,1.333C31.232,46.929,28.165,47.746,26.042,47.746L26.042,47.746z
				 M24.179,41.275c0.646,0.282,1.284,0.471,1.863,0.471c0.208,0.004,0.749,0.001,1.422-0.512c-0.363-0.271-0.819-0.478-1.368-0.478
				C25.7,40.757,25.066,40.854,24.179,41.275L24.179,41.275z"/>
		</g>
		<g>
			<path style="&st0;" d="M47.862,47.643c0,0,8.311-3.414,8.791,9.064C53.739,55.791,46.252,55.455,47.862,47.643z"/>
			<path style="&st3;" d="M59.814,60.846l-4.062-1.276c-0.364-0.115-0.812-0.215-1.307-0.33c-3.142-0.729-11.488-2.665-9.523-12.202
				l0.322-1.563l1.477-0.606c0.265-0.108,1.682-0.651,3.544-0.651c2.678,0,8.955,1.206,9.384,12.376L59.814,60.846L59.814,60.846z
				 M50.656,50.243c0.156,1.135,0.873,1.804,2.331,2.355C52.483,51.185,51.704,50.396,50.656,50.243L50.656,50.243z"/>
		</g>
		<g>
			<path style="&st0;" d="M33.804,34.441c0,0,3.413-8.309-9.066-8.791C25.654,28.564,25.991,36.053,33.804,34.441z"/>
			<path style="&st3;" d="M31.766,37.666L31.766,37.666c-7.284,0-8.879-6.874-9.561-9.81c-0.115-0.494-0.215-0.942-0.329-1.306
				L20.6,22.489l4.254,0.165c5.434,0.209,9.16,1.826,11.074,4.804c2.365,3.68,0.834,7.68,0.651,8.124l-0.606,1.476l-1.563,0.322
				C33.489,37.57,32.599,37.666,31.766,37.666L31.766,37.666z M28.872,29.347c0.59,1.514,1.27,2.138,2.335,2.284
				c-0.043-0.325-0.145-0.657-0.343-0.955C30.504,30.135,29.821,29.685,28.872,29.347L28.872,29.347z"/>
		</g>
		<g>
			<polygon style="&st3;" points="42.056,44.146 40.098,38.475 48.562,35.552 50.521,41.224 42.056,44.146 			"/>
			<polygon style="&st3;" points="37.53,41.24 37.5,25.918 43.5,25.907 43.53,41.229 37.53,41.24 			"/>
			<g>
				<path style="&st2;" d="M42.028,41.539c0-0.775-0.629-1.405-1.406-1.405s-1.404,0.63-1.404,1.405c0,0.781,0.627,1.41,1.404,1.41
					S42.028,42.32,42.028,41.539z"/>
				<path style="&st3;" d="M40.623,45.949c-2.428,0-4.404-1.979-4.404-4.41c0-2.43,1.976-4.405,4.404-4.405
					c2.429,0,4.406,1.976,4.406,4.405C45.028,43.971,43.052,45.949,40.623,45.949L40.623,45.949z M40.623,39.949
					c-0.879,0-1.594,0.713-1.594,1.59c0,0.879,0.715,1.595,1.594,1.595c0.88,0,1.596-0.716,1.596-1.595
					C42.219,40.662,41.503,39.949,40.623,39.949L40.623,39.949z"/>
			</g>
		</g>
	</g>
</g>
<g>
	<g>
		<path style="&st2;" d="M69.061,36.78c0-0.581-0.307-0.849-0.849-0.849h-1.58V32.73h3.586c1.697,0,2.467,0.731,2.467,2.16v0.731
			c0,0.616-0.038,1.119-0.038,1.119h0.077c0.927-2.275,3.625-4.474,6.673-4.474c3.316,0,5.205,1.504,5.861,4.435h0.078
			c1.08-2.353,3.779-4.435,6.941-4.435c4.398,0,6.441,2.506,6.441,7.483v8.445c0,0.578,0.309,0.848,0.849,0.848h1.582v3.201h-3.703
			c-1.735,0-2.469-0.73-2.469-2.467v-9.219c0-2.738-0.539-4.897-3.431-4.897c-2.7,0-4.784,2.353-5.477,5.013
			c-0.194,0.812-0.309,1.66-0.309,2.662v8.908H82.02V40.559c0-2.545-0.386-4.897-3.356-4.897c-2.852,0-4.859,2.392-5.591,5.169
			c-0.192,0.77-0.27,1.619-0.27,2.506v8.908h-3.742V36.78z"/>
		<path style="&st2;" d="M105.392,36.78c0-0.581-0.308-0.849-0.848-0.849h-1.583V32.73h3.665c1.736,0,2.468,0.731,2.468,2.467
			v12.998c0,0.578,0.309,0.848,0.849,0.848h1.581v3.201h-3.665c-1.734,0-2.467-0.73-2.467-2.467V36.78z M105.469,25.017h3.355v3.896
			h-3.355V25.017z"/>
		<path style="&st2;" d="M115.804,36.78c0-0.581-0.309-0.849-0.849-0.849h-1.581V32.73h3.586c1.659,0,2.468,0.731,2.468,2.16v0.731
			c0,0.616-0.077,1.119-0.077,1.119h0.077c0.772-1.697,3.085-4.474,7.328-4.474c4.628,0,6.712,2.506,6.712,7.483v8.445
			c0,0.578,0.307,0.848,0.849,0.848h1.58v3.201h-3.702c-1.734,0-2.468-0.73-2.468-2.467v-9.18c0-2.738-0.539-4.897-3.663-4.897
			c-3.009,0-5.399,1.968-6.171,4.78c-0.269,0.773-0.347,1.66-0.347,2.623v9.141h-3.741V36.78z"/>
		<path style="&st2;" d="M139.869,36.78c0-0.581-0.308-0.849-0.848-0.849h-1.581V32.73h3.664c1.772,0,2.506,0.731,2.506,2.392v9.255
			c0,2.699,0.539,4.859,3.624,4.859c4.012,0,6.364-3.508,6.364-7.365V32.73h3.741v15.465c0,0.578,0.309,0.848,0.849,0.848h1.581
			v3.201h-3.588c-1.658,0-2.467-0.77-2.467-2.16v-0.73c0-0.617,0.038-1.119,0.038-1.119h-0.077c-0.81,1.928-3.317,4.473-7.174,4.473
			c-4.396,0-6.633-2.312-6.633-7.482V36.78z"/>
		<path style="&st2;" d="M164.049,35.739h-2.545V32.73h2.623v-5.361h3.664v5.361h4.666v3.009h-4.666v8.948
			c0,3.893,2.699,4.395,4.127,4.395c0.539,0,0.887-0.078,0.887-0.078v3.318c0,0-0.502,0.076-1.312,0.076
			c-2.467,0-7.443-0.77-7.443-7.287V35.739z"/>
		<path style="&st2;" d="M185.029,32.267c5.479,0,8.408,4.088,8.408,9.14c0,0.503-0.115,1.544-0.115,1.544h-14.23
			c0.23,4.164,3.24,6.518,6.709,6.518c3.357,0,5.709-2.275,5.709-2.275l1.619,2.66c0,0-2.891,2.854-7.52,2.854
			c-6.17,0-10.375-4.434-10.375-10.219C175.234,36.277,179.477,32.267,185.029,32.267z M189.582,40.213
			c-0.115-3.24-2.16-4.977-4.59-4.977c-2.855,0-5.168,1.736-5.746,4.977H189.582z"/>
		<path style="&st0;" d="M198.527,35.044H196.1v-2.199h2.428v-0.692c0-6.402,4.512-7.214,6.672-7.214
			c0.734,0,1.195,0.078,1.195,0.078v2.353c0,0-0.346-0.078-0.924-0.078c-1.465,0-4.32,0.542-4.32,4.862v0.692h4.938v2.199h-4.938
			v17.2h-2.623V35.044z"/>
		<path style="&st0;" d="M212.205,28.257c0-0.542-0.307-0.849-0.848-0.849h-1.619v-2.277h2.738c1.658,0,2.352,0.695,2.352,2.353
			v21.637c0,0.578,0.309,0.85,0.85,0.85h1.619v2.273h-2.738c-1.658,0-2.354-0.693-2.354-2.352V28.257z"/>
		<path style="&st0;" d="M230.102,32.382c5.67,0,10.258,4.32,10.258,10.067c0,5.863-4.588,10.258-10.219,10.258
			c-5.67,0-10.26-4.395-10.26-10.258C219.881,36.702,224.471,32.382,230.102,32.382z M230.141,50.355c4.127,0,7.52-3.395,7.52-7.906
			c0-4.396-3.393-7.676-7.52-7.676c-4.164,0-7.559,3.279-7.559,7.676C222.582,46.961,225.977,50.355,230.141,50.355z"/>
		<path style="&st0;" d="M243.754,36.007c-0.232-0.692-0.656-0.885-1.348-0.885h-0.504v-2.277h1.352c1.85,0,2.467,0.349,3.045,2.16
			l3.975,12.304c0.307,0.926,0.578,2.084,0.578,2.084h0.078c0,0,0.307-1.158,0.615-2.084l4.742-14.386h2.623l4.744,14.386
			c0.309,0.926,0.617,2.084,0.617,2.084h0.078c0,0,0.229-1.119,0.539-2.084l4.01-12.304c0.578-1.811,1.197-2.16,3.049-2.16h1.348
			v2.277h-0.539c-0.656,0-1.119,0.192-1.35,0.885l-5.555,16.237h-2.891l-4.746-13.807c-0.307-0.963-0.576-2.082-0.576-2.082h-0.078
			c0,0-0.27,1.119-0.617,2.082l-4.705,13.807h-2.932L243.754,36.007z"/>
		<path style="&st0;" d="M284.402,32.382c5.361,0,8.139,4.128,8.139,8.947c0,0.464-0.078,1.312-0.078,1.312h-14.887
			c0.078,4.898,3.51,7.715,7.521,7.715c3.547,0,5.822-2.393,5.822-2.393l1.271,1.969c0,0-2.812,2.775-7.211,2.775
			c-5.746,0-10.143-4.164-10.143-10.141C274.838,36.199,279.197,32.382,284.402,32.382z M289.842,40.559
			c-0.156-4.01-2.623-5.978-5.479-5.978c-3.201,0-6.014,2.082-6.67,5.978H289.842z"/>
		<path style="&st0;" d="M297.785,35.971c0-0.541-0.311-0.849-0.85-0.849h-1.617v-2.277h2.697c1.619,0,2.354,0.656,2.354,2.199
			v1.312c0,0.81-0.078,1.465-0.078,1.465h0.078c0.924-2.93,3.084-5.168,6.131-5.168c0.541,0,1.041,0.117,1.041,0.117v2.582
			c0,0-0.463-0.076-0.963-0.076c-2.738,0-4.783,2.16-5.631,5.013c-0.385,1.233-0.539,2.546-0.539,3.782v8.174h-2.623V35.971z"/>
	</g>
	<g>
		<path style="&st0;" d="M45.455,48.369c1.561-0.742,2.229-2.609,1.489-4.174c-0.188-0.396-0.445-0.732-0.753-1.006
			c2.876-0.25,3.633-2.541,2.716-4.472c-0.741-1.562-2.636-2.897-4.876-1.033c0.231-0.726,0.2-1.541-0.151-2.288
			c-0.742-1.564-2.608-2.23-4.173-1.488c-1.254,0.594-1.93,1.912-1.768,3.217c-0.812-0.375-1.779-0.398-2.653,0.013
			c-1.564,0.741-2.233,2.608-1.493,4.172c0.497,1.038,1.487,1.685,2.553,1.778c-1.105,0.887-1.504,2.449-0.87,3.783
			c0.741,1.564,2.608,2.23,4.171,1.492c0.74-0.352,1.278-0.953,1.562-1.656C41.842,48.322,43.745,49.176,45.455,48.369z
			 M37.169,43.361c-1.011-2.141-0.1-4.688,2.037-5.7c2.139-1.015,4.69-0.102,5.701,2.038c1.011,2.135,0.103,4.688-2.036,5.699
			C40.732,46.408,38.182,45.498,37.169,43.361z"/>
		<path style="&st0;" d="M40.86,31.406c0,0-8.292-3.462,0.193-12.627C42.464,21.486,47.521,27.021,40.86,31.406z"/>
		<path style="&st0;" d="M41.466,50.68c0,0-8.292,3.463,0.192,12.629C43.072,60.6,48.129,55.066,41.466,50.68z"/>
		<path style="&st0;" d="M47.724,34.108c0,0-3.415-8.311,9.064-8.792C55.873,28.229,55.536,35.719,47.724,34.108z"/>
		<path style="&st0;" d="M34.524,48.166c0,0-8.311-3.414-8.792,9.066C28.645,56.316,36.134,55.979,34.524,48.166z"/>
		<path style="&st0;" d="M50.898,40.777c0,0,3.462-8.29,12.626,0.193C60.816,42.383,55.283,47.441,50.898,40.777z"/>
		<path style="&st0;" d="M31.624,41.384c0,0-3.462-8.29-12.627,0.194C21.704,42.99,27.238,48.047,31.624,41.384z"/>
		<path style="&st0;" d="M48.195,47.643c0,0,8.311-3.414,8.791,9.064C54.073,55.791,46.585,55.455,48.195,47.643z"/>
		<path style="&st0;" d="M34.138,34.441c0,0,3.413-8.31-9.066-8.791C25.988,28.564,26.325,36.053,34.138,34.441z"/>
		<g>
			<line style="&st1;" x1="41.41" y1="41.31" x2="49.875" y2="38.387"/>
			<line style="&st1;" x1="40.864" y1="41.234" x2="40.834" y2="25.912"/>
			<path style="&st2;" d="M42.362,41.539c0-0.775-0.629-1.406-1.406-1.406s-1.404,0.631-1.404,1.406c0,0.781,0.627,1.41,1.404,1.41
				S42.362,42.32,42.362,41.539z"/>
		</g>
	</g>
</g>
</svg>
