<?xml version="1.0" encoding="utf-8"?>
<!-- Generator: Adobe Illustrator 15.0.2, SVG Export Plug-In . SVG Version: 6.00 Build 0)  -->
<!DOCTYPE svg PUBLIC "-//W3C//DTD SVG 1.1//EN" "http://www.w3.org/Graphics/SVG/1.1/DTD/svg11.dtd">
<svg version="1.1" id="Layer_1" xmlns="http://www.w3.org/2000/svg" xmlns:xlink="http://www.w3.org/1999/xlink" x="0px" y="0px"
	 width="128px" height="128px" viewBox="0 0 128 128" enable-background="new 0 0 128 128" xml:space="preserve">
<circle fill="#FFFFFF" cx="64" cy="64" r="64"/>
<g>
	<path fill="#B4C435" d="M72.449,78.754c3.143-1.495,4.488-5.256,2.996-8.404c-0.377-0.801-0.895-1.478-1.516-2.028
		c5.793-0.503,7.318-5.117,5.469-9.005c-1.49-3.146-5.311-5.835-9.82-2.081c0.467-1.462,0.404-3.104-0.305-4.607
		c-1.492-3.151-5.251-4.492-8.404-2.999c-2.526,1.195-3.887,3.852-3.561,6.479c-1.636-0.755-3.583-0.803-5.344,0.025
		c-3.151,1.494-4.497,5.252-3.006,8.402c1.001,2.092,2.996,3.392,5.143,3.581c-2.226,1.785-3.03,4.933-1.751,7.619
		c1.492,3.151,5.252,4.492,8.4,3.006c1.491-0.708,2.574-1.92,3.145-3.336C65.173,78.659,69.004,80.378,72.449,78.754z
		 M55.762,68.668c-2.036-4.31-0.202-9.441,4.102-11.48c4.309-2.044,9.445-0.205,11.482,4.104c2.035,4.299,0.205,9.44-4.102,11.479
		C62.938,74.805,57.801,72.971,55.762,68.668z"/>
	<path fill="#B4C435" d="M63.194,44.589c0,0-16.7-6.974,0.389-25.433C66.426,24.611,76.609,35.757,63.194,44.589z"/>
	<path fill="#B4C435" d="M64.416,83.407c0,0-16.699,6.975,0.388,25.436C67.648,103.387,77.834,92.242,64.416,83.407z"/>
	<path fill="#B4C435" d="M77.02,50.033c0,0-6.877-16.739,18.256-17.709C93.432,38.192,92.752,53.275,77.02,50.033z"/>
	<path fill="#B4C435" d="M50.433,78.345c0,0-16.739-6.876-17.708,18.26C38.593,94.76,53.676,94.079,50.433,78.345z"/>
	<path fill="#B4C435" d="M83.412,63.464c0,0,6.975-16.697,25.43,0.388C103.387,66.699,92.242,76.885,83.412,63.464z"/>
	<path fill="#B4C435" d="M44.592,64.686c0,0-6.974-16.697-25.433,0.391C24.613,67.92,35.759,78.104,44.592,64.686z"/>
	<path fill="#B4C435" d="M77.967,77.29c0,0,16.74-6.876,17.707,18.257C89.807,93.702,74.727,93.025,77.967,77.29z"/>
	<path fill="#B4C435" d="M49.655,50.703c0,0,6.875-16.736-18.259-17.706C33.241,38.866,33.919,53.949,49.655,50.703z"/>
	<g>
		<line fill="none" stroke="#604017" stroke-width="2.2173" x1="64.303" y1="64.536" x2="81.35" y2="58.65"/>
		<line fill="none" stroke="#604017" stroke-width="2.2173" x1="63.202" y1="64.385" x2="63.142" y2="33.525"/>
		<path fill="#604017" d="M66.219,64.998c0-1.562-1.266-2.831-2.831-2.831c-1.565,0-2.828,1.269-2.828,2.831
			c0,1.573,1.263,2.84,2.828,2.84C64.953,67.838,66.219,66.57,66.219,64.998z"/>
	</g>
</g>
<circle fill="none" stroke="#B4C435" stroke-width="8" stroke-miterlimit="10" cx="64" cy="64" r="55"/>
</svg>
