<?xml version="1.0" encoding="utf-8"?>
<!-- Generator: Adobe Illustrator 15.0.2, SVG Export Plug-In . SVG Version: 6.00 Build 0)  -->
<!DOCTYPE svg PUBLIC "-//W3C//DTD SVG 1.1//EN" "http://www.w3.org/Graphics/SVG/1.1/DTD/svg11.dtd">
<svg version="1.1" id="Layer_1" xmlns="http://www.w3.org/2000/svg" xmlns:xlink="http://www.w3.org/1999/xlink" x="0px" y="0px"
	 width="52px" height="34px" viewBox="0 0 52 34" enable-background="new 0 0 52 34" xml:space="preserve">
<g>
	<path fill="#FFFFFF" d="M7.691,6.594c0,0,4.462,1.889,4.254-2.939c-0.103-1.89-0.623-3.254,2.076-3.569
		c1.556-0.21,2.283-0.21,3.007,2.099c0.727,2.309,1.868,5.249,5.188,1.576c1.349-1.576,2.595-2.416,4.151-0.526
		c1.557,1.89,1.038,1.366,0.311,3.989c-0.623,1.365-1.764,4.199,1.867,3.884c1.764-0.105,3.138-0.756,3.944,2.099
		c0.414,1.47,0.829,1.994-2.181,3.779c-3.009,1.785-3.631,2.519-1.866,4.305c1.763,1.784,3.527,2.939,1.14,4.932
		c-0.934,0.946-1.35,1.784-3.839,0.525c-2.491-1.26-3.943-1.05-3.838,2.727c-0.208,1.051,0.414,2.624-1.972,3.256
		c-1.453,0.419-3.112,0.315-4.046-2.729c-0.933-3.045-2.697-2.833-4.461-0.841c-1.765,1.994-2.388,2.415-4.359,1.261
		c-0.934-0.631-2.801-1.891-0.312-4.829c0.312-0.84,1.869-3.989-2.283-3.884c-2.49,0.105-3.838,0.733-4.358-2.1
		c-0.206-1.05-0.622-3.149,3.736-3.673c0.83-0.42,3.632-1.26,0.934-4.093c-1.246-1.156-3.321-2.31-1.764-4.513
		C3.852,5.964,4.059,4.706,7.691,6.594z M16.51,11.736c-2.578,0-4.668,2.116-4.668,4.725c0,2.609,2.09,4.724,4.668,4.724
		c2.579,0,4.67-2.114,4.67-4.724C21.18,13.852,19.089,11.736,16.51,11.736z"/>
	<path fill="#FFFFFF" d="M32.101,27.867c-0.74-1.594,0.725-2.09,1.656-2.679c2.055-1.497,0.357-2.37-0.128-2.734
		c-2.729-0.854-2.222-2.146-1.967-2.792c0.663-1.75,1.455-1.188,3.032-0.829c2.648,0.556,2.014-1.642,1.912-2.218
		c-1.254-2.175,0.082-2.762,0.756-3.055c1.396-0.506,1.748-0.162,2.647,1.321c0.896,1.486,2.003,1.824,2.95-0.011
		c0.954-1.84,2.027-1.71,2.913-1.269c1.451,0.686,0.868,1.621,0.883,2.314c-0.504,2.408,0.397,2.715,2.141,2.203
		c1.738-0.513,1.908,0.074,2.399,0.788c1.296,1.561,0.035,2.088-1.301,3.027c-1.337,0.93-1.02,1.473,0.702,2.971
		c1.72,1.504,1.393,1.79,0.958,2.675c-0.851,1.734-1.651,1.163-2.769,0.884c-2.288-0.634-1.889,1.316-1.643,2.263
		c0.165,1.764,0.558,1.495-0.662,2.52c-1.213,1.021-1.912,0.342-2.594-0.827c-1.701-2.75-2.774-0.999-3.501,0.391
		c-0.734,1.393-1.203,1.309-2.171,0.994c-1.691-0.524-1.202-1.334-0.918-2.53c0.69-3.071-2.384-2.388-2.384-2.388
		C32.463,29.668,32.48,28.843,32.101,27.867z M44.788,24.169c0.3-1.671-0.801-3.279-2.442-3.581
		c-1.659-0.302-3.24,0.802-3.542,2.477c-0.299,1.664,0.795,3.274,2.451,3.574C42.898,26.946,44.486,25.836,44.788,24.169z"/>
</g>
</svg>
